<?xml version="1.0" standalone="no"?><!DOCTYPE svg PUBLIC "-//W3C//DTD SVG 1.1//EN" "http://www.w3.org/Graphics/SVG/1.1/DTD/svg11.dtd"><svg t="1778647443530" class="icon" viewBox="0 0 1024 1024" version="1.1" xmlns="http://www.w3.org/2000/svg" p-id="1811" xmlns:xlink="http://www.w3.org/1999/xlink" width="200" height="200"><path d="M723.912799 362.100319l182.297458-182.297458-66.522581-66.586545-182.361422 182.297458 66.586545 66.522581z m277.987632-182.297458a37.994628 37.994628 0 0 1-11.257668 28.016241L190.644762 1008.008995a40.745081 40.745081 0 0 1-55.968517 0L11.417578 884.814292a40.745081 40.745081 0 0 1 0-56.032482L811.607471 28.591917a40.745081 40.745081 0 0 1 56.032482 0l123.258667 123.194703a37.994628 37.994628 0 0 1 11.001811 28.016241zM161.413205 61.661316l61.085639 18.677493-61.085639 18.741458-18.677494 61.08564-18.741458-61.08564-61.085639-18.741458 61.085639-18.677493L142.735711 0.575676l18.677494 61.08564z m217.733525 100.807295l122.171279 37.354988-122.171279 37.291024-37.291024 122.171279-37.354988-122.171279-122.171278-37.291024 122.171278-37.354988 37.354988-122.171278 37.291024 122.171278z m578.746455 297.304766l61.085639 18.677494-61.085639 18.741458-18.677494 61.08564-18.677494-61.08564-61.149603-18.741458 61.149603-18.677494 18.677494-61.085639 18.677494 61.085639zM559.653195 61.661316l61.085639 18.677493-61.085639 18.741458-18.677494 61.08564-18.677494-61.08564-61.085639-18.741458 61.085639-18.677493L540.975701 0.575676l18.677494 61.08564z" fill="#374151" p-id="1812"></path></svg>